<?xml version="1.0" encoding="UTF-8"?>
<svg id="Layer_2" data-name="Layer 2" xmlns="http://www.w3.org/2000/svg" viewBox="0 0 1065.96 1065.96">
  <g id="Layer_1-2" data-name="Layer 1">
    <circle cx="532.98" cy="532.98" r="532.98" fill="#fff" stroke-width="0"/>
    <g>
      <g>
        <path d="M532.69,830.94c-1.55,12.53,2.85,25.56,9.82,35.87,3.41,5.05,7.54,9.63,12.12,13.63,2.76,2.41,5.72,4.57,8.68,6.7,1.92,1.38,6.44,3.4,7.16,5.64-13.65-2.62-25.86-8.89-36.66-17.57-11.06-8.89-18.68-19.28-26.12-31.17-.15.04-.31.09-.46.13,1.56,5.5,3.53,10.83,5.43,16.23-12.69-4.98-21.44-15.75-30.17-25.8,1.84,11.93,5.1,22.68,12.41,32.03-11.85-8.28-19.03-20.94-25.82-33.34-7.45-13.62-14.3-27.18-24.98-38.62-.16.07-.31.14-.47.21.54,2.51,1.08,5.03,1.62,7.54-.19.07-.38.15-.57.22-3.91-3.74-5.4-8.93-7.62-13.69-.16.04-.32.08-.48.12v10.11c-4.95-2.61-7.02-13.67-4.58-24.32-.15-.11-.29-.22-.44-.33-3.97,5.93-4.42,12.04-1.6,18.76,2.09,4.96,7.76,8.98,7.85,14.56-8.54-5.65-14-14.16-15.36-24.36-.76-5.68-.22-11.33,1.29-16.84,1.52-5.53,5.4-11.26,5.67-16.98-6.41,6.34-7.94,14.76-9.92,22.99-.23-.03-.47-.06-.7-.09.45-7.58,1.85-14.22,3.93-21.53.84-2.96.78-4.12-1.3-6.34-2.19-2.33-4.22-4.52-5.57-7.47-2.76-6.03-.17-11.52-1.34-17.6-1.07-5.54-7.41-6.78-10.35-11.11-3.5-5.15-3.35-11.79-4.82-17.64-1.7-6.78-4.89-13.01-6.54-19.8-1.66-6.8-1.06-11.28,3.93-16.38,2.16-2.2,4.53-4.61,6.02-7.34,1.47-2.71,1.17-5.86,1.16-8.84-.02-7.91,0-15.84-.41-23.74-.19-3.73-.66-7.37-1.31-11.05-.54-3.02-.53-7.07-2.36-9.57-1.85-2.52-4.02-4.01-5.24-7.06-1.06-2.67-1.4-5.57-1.34-8.42.07-3.39.72-6.75,1.24-10.1.35-2.22,1.72-6.63-.44-8.36-1.66-1.33-4.48-1.1-6.35-2.51-2.51-1.89-3.86-4.85-5.09-7.65-2.17-4.97-3.23-12.88-8.13-15.97-2.52-1.59-5.58-1.47-8.43-1.77-3.64-.39-7.26-.94-10.82-1.82-6.38-1.58-12.44-4.28-17.92-7.9-11.05-7.29-19.52-17.92-26.48-29.04-7.4-11.82-12.38-24.9-19.59-36.79-3.58-5.9-7.76-11.55-10.89-17.71-3.2-6.3-2.78-12.75-1.16-19.43,1.27-5.23,2.93-14.19,8.65-16.52,5.92-2.41,9.47,5.86,11.28,9.98,4.87,11.04,8.08,26.53,20.57,31.26,6.13,2.32,13.17,2.42,19.62,3.1,7.57.8,15.15,1.56,22.73,2.27,3.47.32,6.94.64,10.41.95,1.92.18,5.08.9,6.98.1,3.6-1.52,1.65-10.11,1.6-13.16-.25-15.42-.2-30.89-2.63-46.15-1.16-7.28-2.09-13.81-6.73-19.8-4.1-5.29-8.69-10.29-13.48-14.97-9.47-9.25-20.35-17.24-32.47-22.65-23.03-10.27-52.45-9.37-71.78,8.17-5.59,5.07-10.73,10.61-16.52,15.46-.18-.11-.36-.21-.54-.32,0-15.4,9.33-31.72,19.83-42.43,9.67-9.86,22.25-17.14,35.79-20.07,20.67-4.47,42.42-7.82,63.55-8.78,20.02-.91,39.78,1.62,55.86,14.44,4.55,3.62,8.79,7.66,13.01,11.66,4,3.79,9.41,7.66,12.56,12.17,1.18,1.68,1.97,3.85-.04,5.2-1.96,1.31-4.68-.12-6.53-.86-5.52-2.22-10.8-4.89-16.1-7.59-.16.19-.31.37-.47.56,3.34,3.6,7.61,6.42,12.04,8.54,4.25,2.04,9.01,2.59,13.2,4.71,8.57,4.34,11.15,13.48,14.45,21.79-7.18-.63-13.53-2.92-19.83-5.44-.14.19-.28.39-.43.58,4.03,3.47,8.24,5.71,13.2,7.68,4.33,1.73,7.66,3.71,9.65,8.13,1.42,3.13,4.27,9.83,1.11,12.65-3.5,3.14-11.99.6-16.15-.02,2.96,4.31,11.66,5.45,20.18,2.75,3.44,6.54.57,12.59-1.97,18.88-2.48,6.17-6.36,12.86-7.2,19.45l.49.26c5.91-7.85,9.57-17.85,12.99-27.03,2.94.4,6.75,1.64,9.38-.27,2.97-2.14,4.08-7.45,5.25-10.72,2.76-7.77,5.94-15.34,9.78-22.65,7.52-14.34,17.13-27.49,27.95-39.5,22.23-24.66,49.43-44.34,78.77-59.69,59.95-31.36,136.84-48.24,202.09-23.59,17.53,6.63,33.36,16.26,45.87,30.34,5.95,6.7,11.21,14.01,15.26,22.03,1.89,3.73,3.52,7.6,4.85,11.57,1.1,3.26,3.87,9.25,2.87,12.67-10.34-10.81-19.86-22.48-32.08-31.32-11.55-8.35-25.12-13.42-39.06-16.05-30.31-5.72-62.05.73-90.47,11.67-27.27,10.5-52.9,25.92-75.63,44.23-22.8,18.35-43.61,40.48-57.73,66.28-3,5.49-7.7,12.46-7.54,18.93.15,6.06,4.87,10.59,9.44,13.97,5.8,4.29,12.55,7.07,19.16,9.86,6.11,2.57,14.56,8.04,21.21,6.24,14.44-3.9,27.86-10.78,42.36-14.72,15.22-4.14,30.81-6.47,46.23-9.69,14.09-2.95,29.09-4.65,38.93-16.31,9.27-10.99,9.2-26.88,18.27-37.72,4.73-5.66,11.57-7.83,16.33-.87,3.85,5.63,6.05,12.77,6.16,19.57.13,7.93-3.92,13.62-7.31,20.4-3.27,6.54-3.75,13.47-4.86,20.57-4.15,26.53-15.83,52.24-34.94,71.35-18.1,18.09-42.46,28.98-67.67,32.45-7.52,1.03-15.05,1.29-22.62,1.29l-.16.63c11.86,5.86,23.73,11.71,35.59,17.57-.08.19-.16.39-.24.58-2.83-.23-5.66-.45-8.49-.68l-.25.74c10.87,6.61,21.56,13.4,32.18,20.42h-12.2c10.79,8.48,21.32,16.76,31.85,25.04-.11.19-.22.38-.33.57l-9.54-2.44c-.1.12-.19.24-.29.36,13.98,13.67,29.4,26.02,37.37,44.44-.14.12-.28.25-.42.37-4.46-5.52-11.83-12.37-19.1-13.06.53,6.43,4.43,12.63,5.64,19.15,1.22,6.61,1.34,13.38.6,20.06-.76,6.9-2.36,13.74-4.59,20.31-1.18,3.48-2.55,6.89-4.09,10.22-1.2,2.59-2.65,7.56-5.01,9.14,6.76-23.45,4.23-45.68-8.56-66.7.49,15.41-4.85,28.14-16.85,38.06,2.07-11.87,4.06-23.42,3.15-35.53-.43-5.69-1.37-11.34-2.88-16.85-1.27-4.64-2.97-13.24-7.05-16.18-.93,14.73-3.61,28.77-11.73,41.97-3.52-21.42-13.04-39.76-24.29-57.41,4.03,27.05,2.17,53.33-7.08,79.2-8.67,24.21-22.74,44.57-38.81,64.37-4.63,5.7-9.07,11.56-13,17.76-3.85,6.06-6.46,12.69-10.09,18.83-.17-.08-.35-.16-.52-.24,3.09-10.38,7-20.4,12.66-29.67,5.85-9.59,11.98-19.04,17.06-29.07,9.7-19.11,15.29-43.3,4.67-63.4l-.53.1c-.61,4.07-.24,8.25-.84,12.36-.66,4.57-1.85,9.04-3.43,13.38-3.22,8.84-7.99,17.05-13.18,24.86-10.98,16.52-24.29,31.34-34.85,48.17-16.94,26.99-23.86,64.67-2.38,91.44,4.78,5.96,10.79,10.88,17.53,14.46,3.33,1.77,6.82,3.21,10.42,4.33,4.39,1.37,9.25,1.52,13.54,3.05-16.71,0-32.48-1.9-46.32-12.17-11.18-8.29-18.7-20.13-21.61-33.73-7.11-33.28,11.95-66.59,30.4-92.76,11.36-16.11,24.42-31.98,31.61-50.54-2.7,2.19-4.73,6.08-6.8,8.87-2.58,3.47-5.16,6.95-7.71,10.45-4.94,6.77-9.81,13.6-14.5,20.55-9.12,13.51-17.73,27.48-24.65,42.26-13.25,28.33-19.91,61.55-3.06,89.89,8.64,14.54,21.6,25.3,35.47,34.6-.06.15-.12.3-.18.45-10.41-3.87-19.19-8.82-27.08-16.76-7.75-7.8-14.23-16.95-20.71-25.81ZM496.87,681.83c-1.22-11.54-6.65-21.93-15.73-29.24-4.77-3.84-10.34-7.12-16.39-8.34-6.8-1.37-12.56.43-18.81,2.9,4.1-3.85,8.68-7.29,12.95-10.95,3.93-3.37,8.3-6.44,11.11-10.79l-.51-.39c-3.27,2.28-6.54,4.57-9.81,6.85l-.37-.51c3.58-4.68,9.24-7.46,11.85-13.09-4.26,2.28-8.51,4.56-12.77,6.84-.13-.21-.26-.42-.39-.63,5.2-4.79,12.28-8.9,15.03-15.68l-.44-.28c-4.53,3.1-9.06,6.19-13.6,9.29-.16-.15-.31-.31-.47-.46,4.32-7.02,13.07-11.92,15.54-19.87-3.54,2-6.08,4.86-9.49,6.63,2.69-6.2,10.74-7.54,11.22-15.23-4.04,3.61-7.81,6.98-11.58,10.34l-.42-.46c4.27-5.17,10.11-9.08,12.49-15.82-3.18,2.42-6.37,4.85-9.55,7.27-.13-.14-.26-.27-.4-.41,3.65-3.96,6.93-8.12,7.71-13.61-1.78.44-3.36.84-4.94,1.24-.06-.17-.12-.33-.18-.5,1.47-2.19,2.94-4.39,4.4-6.58-.2-.19-.4-.39-.61-.58-1.13.59-2.26,1.17-3.77,1.96,1.73-4.05,3.53-7.29,4.09-11.78.64-5.17,1.06-10.31,1.95-15.45,1.7-9.78,3.48-19.56,6.15-29.13,2.35-8.44,5.4-16.73,9.82-24.33,2.11-3.64,4.53-7.1,7.25-10.31,2.27-2.68,5.94-5.08,7.65-8.08-13.63,4.18-24.31,13.01-31.19,25.46-7.01,12.69-9.2,29.27-21.17,38.46,9.49-15.67,12.01-36.29,24.63-50.01,11.88-12.91,30.52-17.16,45.92-24.28-5.33-2.87-13.18-2.38-19.1-3.1-5.68-.69-11.59-2.31-17.33-1.6-11.47,1.42-19.78,12.23-28.14,19.22-.13-.14-.25-.28-.38-.42,4.42-10.67,12.14-15.65,22.28-20.2-.04-.22-.08-.43-.11-.65-4.57-1.5-8.4-4.11-11.63-8.07-.83,1.48-1.39,2.49-1.95,3.5-.17-2.15.75-4.18.95-6.28.21-2.2-.57-4.07-1.13-6.19-.56-2.1-1.05-4.21-1.45-6.35-.33-1.75-.13-5.73-1.02-7.27-1.76-3.02-5.72,3.97-6.87,5.54-2.58,3.49-5,7.09-7.39,10.72-4.44,6.75-8.8,15.35-15.5,20.17-2.33,1.67-6.55,1.73-5.88,4.97.4,1.91,2.43,4.21,3.42,5.95,1.07,1.89,1.92,3.82,2.78,5.81-3.67-2.65-6.51-5.34-8.9-9.19-.89-1.44-1.71-3.29-3.38-3.95-2-.79-5.05-.39-7.2-.49-4.23-.19-10.04-1.39-14.14-.37-3.57.9-5.12,7.17-6.33,10.24-1.28,3.25-1.52,4.73,1.26,7,2.65,2.16,5.52,4.01,8.08,6.3,5.2,4.66,9.43,10.56,12.45,16.84,6.55,13.66,6.33,28.04,5.34,42.8-1.15,17.13-1.08,34.39-1.65,51.55-.29,8.71-.6,17.42-1.16,26.12-.29,4.48-.62,8.95-.94,13.42-.25,3.44.06,7.46-1.2,10.68-1.9-2.13-1.09-8.66-1.28-11.42-.27-3.9-.55-7.81-.81-11.71-.52-7.76-.93-15.52-1.2-23.3-.55-15.75-.55-31.42.57-47.15,1.06-14.98,1.82-30.54-2.73-45.07-1.71-5.46-4.27-10.71-8.06-15.04-4.61-5.27-10.4-7.87-16.56-10.89-.14.2-.28.4-.42.6,3.37,6.18,7.18,12,9.94,18.5-.14.07-.28.13-.42.2-2.76-3.44-5.51-6.88-8.27-10.32-.22.05-.44.11-.66.16-2.79,7.34-7.78,13.23-4.4,21.22,3.24,7.66,8.36,14.44,12.38,21.68,7.84,14.12,12.93,29.37,13.76,45.55-4.86-5.62-5.99-12.78-9.02-19.61-1.66,5.17-3.06,11.08-2.08,16.52.94,5.23,4.38,8.98,6.78,13.53,5.03,9.56,3.29,21.79,3.4,32.23.11,11.25-1.44,23.66,1,34.7,1.2,5.42,4.19,10.07,5.75,15.36,1.57,5.31,1.64,10.49,1.64,15.97-5.98-5.61-9.65-13.24-15.4-19.12-3.78-3.86-5.95-11.48.89-12.88,2.42-.5,3.08-.7,2.3-3.36-.77-2.64-1.85-2.35-4.13-.85-5.16,3.42-6.16,8.97-5.13,14.74,1.29,7.27,5.54,13.56,6.96,20.76,1.29,6.57.44,12.08,5.62,17.32,2.11,2.13,10.51,7.85,11.69,2.97.77-3.21-.43-7.86-.52-11.16-.1-3.81-.04-7.64.15-11.45.34-6.76,1.54-13.02,5.15-18.84,3.63-5.84,8.71-10.5,13.71-15.14-.5,2.39-3.54,3.65-2.37,6.95,4.34-2.44,8.88-6.48,13.81-7.58,5.17-1.16,11.07,2.03,13.21,6.65-5.66,1.79-9.85.98-12.74,7.25-1.33,2.9-4.33,16.85-9.34,13.78-2.3-1.41-2.71-3.77-5.79-3.5-2.53.22-5.28,1.99-7.12,3.65-4.39,3.95-5.98,10.17-6.2,15.87-.15,3.84.17,8.16,1.4,11.83.86,2.57,1.46,3.24,4.23,2.97,6.86-.67,14.71-3.39,20.99-6.19,12.14-5.41,21.82-14.42,31.42-23.38-3.42,11.72-11.38,23.58-19.98,32.12-4.16,4.13-9.06,7.57-14.73,9.24-2.65.78-5.7.84-8.03,2.48-2.16,1.52-2.12,3.68-2.97,5.95-2.03-4.61-6.07-12.49-12.54-10.56-5.64,1.68-4.56,9.07-2.32,13.04,6.27,11.1,21.87,10.23,32.27,6.34,24.96-9.33,35.86-37.63,39.78-61.74,2.72,3.75,4.68,8.19,4.11,12.91-.61,5.07-3.32,9.69-4.51,14.62.27.05.53.1.8.15,15.57-19.68,18.76-41.4,10.22-65.12,8.49,2.38,6.31,17.71,6.76,23.94.17-.03.34-.06.51-.09,1.73-8.14,1.02-16.56-3.26-23.81-2.39-4.06-5.78-7.45-8.79-11.05-2.77-3.31-5.35-6.88-8.51-9.83-3.56,9.67-1.21,19.51,1.77,28.97,3.2,10.14,8.63,21.46,6.39,32.28ZM529.06,634.46c5.98-8.83-2.52-16.87-7.06-23.81.2-.14.39-.27.59-.41,4.58,1.6,6.14,6.2,8.69,9.2,1.26-.71,2.69-2.36,3.61-.52.46.92-.46,3.82-.58,4.86.21.05.42.1.63.15,2.83-7.58,5.06-14.95,6.95-22.82,3.17,3.61,1.06,8.38,3.09,12.18,3.23-6.57,1.19-16.38,1.19-23.61,3.37,3.42,2.02,8.6,5.48,11.89,1.36-4.25-.29-8.13-.67-12.04.15-.03.31-.06.46-.09.75,2.61,1.5,5.22,2.25,7.83,1.86-3.78.19-7.51.31-11.73,2.27,3.6,3.13,7.08,3.1,11.21,5.01-4.31,2.24-10.92,1.12-16.39.16-.06.32-.11.48-.17,1.25,3.06,2.5,6.12,3.77,9.22,6.69-6.53,13.21-19.13,12.21-23.57-.58.32-1.14.64-1.7.95-.15-.12-.3-.24-.45-.36.95-1.59,2.44-3.39,3.05-5.14.65-1.89-.22-2.53-.27-4.3-.08-2.89,1.38-5.89,1.76-8.84-.96.6-1.44.89-2.22,1.38,2.83-10.98,9.83-20.68,11.43-32.06,1.56-11.09,3.78-24.41-1.93-34.43l-.64.28c1.44,4.39,3.49,8.71,2.06,13.77-3.03-4.66-5.46-9.45-10.92-11.57,1.79,4.27,3.35,8.47,4.73,12.88-10.88-5.17-16.85-6.19-20.43-3.53,3.61.82,7.52.65,10.45,3.88-5.9.28-9.59,3.71-14.7,5.92-3.7,1.6-7.21-1.03-10.77-2.05-12.72-3.64-24.6-.03-36.41,4.76,3.4-5.24,10.31-8.43,16.03-10.38,6.62-2.25,14.43-2.32,20.13-6.55-12.11-1.07-23.99-2.78-35.89-.16,4.86-3.71,11.08-3.85,16.38-6.35-17.56-3.54-29.28,10.25-34.65,25.24-6.23,17.4-5.51,34.95-2.17,52.81.21,0,.43,0,.64,0,8.6-16.52,15.63-36.23,31.22-47.67,6.66-4.89,14.66-7.04,22.84-5.56,4.12.75,7.98,3.08,12.23,2.78,4.08-.29,10.84-3.82,14.54-1.18-2.79,2.22-7.68,1.97-10.01,4.38-1.9,1.96-1,7.57-1.48,10.11-1.33,7.16-5.02,13.64-10.32,18.61-5.13,4.82-11.59,8.15-18.45,9.71-3.6.82-7.31,1.14-11,.93-3.76-.21-7.49-1.74-11.11-.56,4.14,5.81,15.97,7.42,22.74,7.13,7.82-.34,14.47-4.56,20.13-9.68,5.26-4.76,9.35-10.64,11.89-17.28,1.32-3.46,2.15-7.04,2.76-10.69.54-3.22.52-7.33,4.23-8.53,2.62,12.61-1.35,26-9.45,35.85-6.18,7.5-14.74,13.12-24.22,15.42-11.11,2.7-21.12-.35-31.44-4.48-3.43-1.38-11.02-6.65-12.81-1.23-1.84,5.55,0,12.68,2.18,17.84,2.26,5.36,5.7,10.09,9.63,14.35,2.42,2.62,5.01,5.06,7.55,7.56,1.54,1.51,4.33,3.38,3.77,5.89-8.62-5.02-16.51-10.74-24.04-17.37-3.18,11.99-4.08,23.81,3.07,34.63,3.73,5.65,9.17,9.92,13.58,15.01,4.33,4.99,6.74,10.16,8.24,16.54,1.92-6.99-.84-13.9-2.67-20.59,4.94,7.07,5.53,14.39,7.47,22.51.2-.05.4-.11.6-.16,1.36-7.58.08-14.95-2.06-22.26.15-.05.3-.11.46-.16,1.13,2.37,2.25,4.74,3.38,7.11.19-.07.38-.15.57-.22.36-5.64-2.26-10.74-3.29-16.17,3.78,3.15,6.05,7.1,6.9,11.89.76-5.45,0-10.67-1.75-15.78,3.35,3.98,4.95,8.57,4.99,13.79ZM626.03,492.66c-.15-.02-.31-.03-.46-.05-2.67,3.38-5.33,6.75-8,10.13l-.51-.39c4.7-8.68,8.78-18.15,14.61-26.15,5.71-7.83,13.93-14.11,21.42-20.15,13.47-10.86,28.33-20.64,44.95-25.9,16.92-5.35,34.17-9.01,49.88-17.63,14.53-7.97,26.86-20.72,25.37-38.47-.23-2.78-.6-10.19-2.83-12.14-2.43-2.12-5.62,3.53-6.91,5.35-2.6,3.66-4.44,7.92-6.39,11.95-1.71,3.54-4.79,7.89-5.22,11.81.19.13.37.26.56.39,5.99-6.47,9.9-15.2,14.48-22.74,0,3.72-2.54,8.25-4.1,11.58-1.76,3.73-3.8,7.33-6.18,10.7-5.25,7.45-12.06,13.58-19.83,18.3-15.77,9.58-34.4,12.62-52.16,16.54-17.59,3.88-35.55,7.61-51.11,17.13-11.91,7.29-21.71,17.66-26.89,30.76-2.93,7.39-3.92,15.11-5.12,22.92-1.42,9.25-2.98,18.38-5.09,27.5,6.05,1.31,14.65-1.99,18.47-6.72,2.81-3.48,4.58-8.02,6.43-12.06,1.91-4.18,3.87-8.12,4.66-12.64ZM376.08,465.9c3.64,1.58,11.03,7.43,14.91,5.14,6.36-3.76-1.47-9.48-5.04-11.07-11.99-5.36-26.58-5.08-39.44-6.48-13.03-1.42-26.04-2.74-37.26-10.17-9.38-6.21-15.34-15.4-20.46-25.19-2.98,9.15-1.28,21.25,6.31,27.82,8.55,7.39,21,7.69,31.42,10.46,10.88,2.9,20.93,8.32,29.35,15.81,9.09,8.08,14.78,19.02,23.41,27.35,10.06-10.74-7.75-24.85-14.22-31.91,6.4,2.53,11.24,7.09,16.15,11.54.2-.14.4-.27.61-.41-1.83-4.13-3.66-8.25-5.72-12.88ZM656.93,516.04c.03.14.06.29.09.43,25.4,0,52.41-11.81,71.11-28.72,9.05-8.18,16.58-17.97,22.4-28.68,3.6-6.64,6.46-13.63,9.49-20.54,2.86-6.51,5.14-12.54,5.14-19.74-.16-.02-.33-.04-.49-.06-3.81,9.2-5.4,19.49-12.93,26.88,2.26-7.11,5.61-13.83,7.21-21.19-7.59,8.9-12.28,20.46-18.55,30.29-5.9,9.25-12.71,17.98-20.89,25.33-17.78,15.99-41.46,25.33-62.59,35.99ZM524.72,677.96c.11.12.21.25.32.37,4.86-3.97,8.8-9.13,13.22-13.59,4.07-4.1,8.31-8.04,12.79-11.69,9.5-7.74,20.77-12.41,30.4-19.83,9.74-7.49,14.47-17.29,15.13-29.52.66-12.14-1.13-26.68-7.27-37.29.31,4.83,1.47,9.55,1.73,14.4.25,4.73-.16,9.36-.49,14.08-.13-.02-.26-.04-.39-.06l-.66-2.57c-.14.02-.27.03-.41.05-.66,5.56-1.31,11.13-1.97,16.69-.22-.02-.45-.05-.67-.07.41-6.44.82-12.89,1.23-19.33-.23-.05-.46-.09-.69-.14-3.6,9.16-2.36,19.12-7.85,27.82.71-8.37,1.43-16.55-.54-24.73-.69,10.61-1.28,21.22-7.97,30.26.82-2.62,1.64-5.24,2.46-7.86-.18-.08-.36-.17-.53-.25-2.73,4.96-5.45,9.92-8.18,14.87-.14-.07-.28-.15-.42-.22.55-2.37,1.11-4.73,1.66-7.1-.25-.11-.5-.21-.76-.32-3.55,6.83-6.04,13.93-10.55,20.16-.21-.14-.43-.28-.64-.42,2.16-3.56,4.56-7.01,4.89-11.4-11.29,15.9-22.57,31.8-33.86,47.7ZM432.24,426.25c-11.36,2.75-22.27,5.78-34.07,5.66-3.19-.03-9.26-1.06-10.52,2.75-1.22,3.68.04,9.72,1.06,13.31,1.7,6.02,6.66,5.42,11.89,5.04,5.34-.4,11.16-.61,16.24-2.46,10.2-3.72,13.25-14.69,15.42-24.29ZM490.21,379.75c-2.74,5.72-5.29,11.86-6.82,18.04-1.09,4.41.12,7.94,4.13,10.24,5.27,3.02,12.13,4.94,18.04,6.26,6.67,1.48,13.44,1.28,19.72-1.5-8.87-2.77-18.44-4.79-25.56-11.17,9.86,4,19.33,3.31,29.04-2.2-14.65-3.43-29.03-6.36-38.55-19.67ZM381.02,371.98c.54,3.03,1.23,6.03,1.88,9.04.55,2.54.74,6.25,1.94,8.58,2.01,3.91,7.88-.2,10.88-1.39,5.99-2.38,12.11-4.61,17.87-7.51,2.44-1.23,11.54-6.17,6.51-9.24-1.98-1.2-6.99.6-8.26-1.77-1.31-2.44,3.9-3.27,5.29-3.97,1.3-.66,4.81-2.97,3.45-4.98-1.03-1.53-5.61.36-6.84.65-6.31,1.48-12.62,2.93-18.87,4.6-2.85.76-14.03,1.89-13.85,6ZM428.5,391.14c-.16-.38-.32-.76-.48-1.14-7.23.69-14.36,1.42-21.53,2.62-3.33.56-6.66,1.14-9.99,1.66-2.48.39-6.13.3-8.38,1.67-1.67,1.02-2,2.21-1.8,4.1.28,2.64,1.35,4.56,1.31,7.32-.02,1.68-.74,5.65.37,7.19,1.16,1.61,2.91.95,4.63.61,11.16-2.18,26.07-4.63,34.06-13.6,5.18-5.81-8.38.31-10.17-1.96-1.76-2.24,3.16-3.7,4.51-4.19,2.95-1.07,4.95-2.44,7.47-4.27ZM510.71,360.67c9.6,1.87,18.84,6.45,29.09,3.49-2.87-3.34-8.69-4.44-12.58-6.4-4.68-2.36-9.18-5.05-13.6-7.87-1.43-.91-3.91-3.33-5.8-3.08-1.83.25-3.28,3.33-4.12,4.7-1.26,2.06-2.3,4.25-3.4,6.4-.86,1.68-2.82,4.2-2.86,6.12-.17,8.1,19.71,10.29,25.11,11.14,2.36.37,11.87,2.48,12.48-1.21.57-3.47-7.61-3.43-9.98-4.04.04-.14.08-.29.12-.43,1.67-.21,3.34-.42,5.01-.63,0-.2,0-.4,0-.6-6.84-1.63-13.5-3.73-19.47-7.59ZM578.95,323.27c-3.44-8.16-10.25-11.65-18.05-14.91-3.99-1.67-8.66-4.73-13.05-3.21-3.84,1.34-6.97,4.44-9.93,7.07-1.88,1.67-7.15,4.45-5.28,7.3,1.88,2.85,8.04,4.47,11.08,5.55,4.49,1.6,9,2.37,13.67,3.2,4.5.81,8.57,2.65,12.76,4.4.08-.16.17-.32.25-.49-3.98-5.9-10.92-7.5-16.48-11.19,5.95,1.69,11.26,4.32,16.76,7.08-4.37-8.29-12.75-10.7-20.26-14.4,10.14,1.22,19.38,5.03,28.54,9.59ZM549.37,351.63c.05-.16.1-.32.15-.48-6.13-2.22-12.25-4.45-18.38-6.67,6.24.71,11.89,3.68,18.18,4.12-5.29-7.04-13.86-7.84-21.03-11.27,9.58.64,18.34,4.42,27.94,7.25-5.87-8.93-14.81-12.24-24.23-16.4-4.95-2.18-7.48-4.08-11.45.5-3.34,3.86-5.52,8.55-7.99,12.98,12,5.14,23.51,10.94,36.81,9.97ZM301.09,460.21c4.72,16.76,14.29,33.5,26.43,45.99,5.4,5.55,11.65,10.29,18.72,13.5,6.87,3.12,15.7,5.93,23.19,4.4l.1-.66c-29.55-13.78-51.62-35.57-68.45-63.24ZM516.42,437.06c-9.14-1.61-18.62-2.84-26.96-7.17-3.29-1.71-6.35-3.89-8.74-6.75-2.63-3.14-3.45-7.06-5.77-10.28-2.54,9.02-4.33,21.15,2.25,29.01,3.16,3.78,7.45,4.45,12.1,5.03,5.06.64,10.08,1.32,15.12.54.01-.21.02-.42.04-.64-3.8-1.13-10.78-1.88-13.04-5.67,5.14,1.13,13.45,4.24,18.52,1.51v-.69h-9.12c-.01-.2-.03-.4-.04-.61,4.83-2.08,10.64-.75,15.65-4.28ZM407.19,335.15c-.02-.28-.04-.56-.06-.84-8.88-.5-16.7,1.2-24.66,5.29-3.01,1.54-7.46,3.32-9.02,6.53-1.54,3.15.38,7.15,1.25,10.24.84,2.98.74,7.93,4.55,6.86,4.41-1.24,8.86-3.6,13.06-5.41,7.59-3.27,15.15-6.75,21.3-12.3-12.07-4.01-23.02-.99-33.9,3.01,7.76-7.41,17.54-10.55,27.48-13.37ZM688.51,265.04c-.72-5.84-4.21-10.49-6.88-15.67,3.3-.87,6.8-1.14,10.19-1.55,2.78-.34,4.7-.14,3.54-3.27,2.11-2.62,2.86-5.06,6.32-3.63,2.25.93,4.4,2.29,6.34,3.76,4.61,3.49,6.76,8.16,10.1,12.65.15-.1.29-.2.44-.3-1.25-7.91-6.93-12.63-12.23-18.06,8.39-.62,16.46-1.21,24.53-1.8-2.83-5.09-14.19-3.41-18.81-2.97-7.31.7-14.51,2.24-21.6,4.1.01.2.02.4.03.59,1.96.22,2.82.53,4.43,1.66-2.98,3.08-7.26,1.84-11.27,1.75-2.95-.07-9.12-1.06-11.74.32-.96.51-1.37,1.4-2.32,1.96-1.34.78-3.49.88-4.97,1.24-3.95.98-7.54,1.89-11.04,3.94,6.59,2.63,14.51.33,21.32,2.77,6.33,2.26,9.79,7.31,13.61,12.51ZM747.5,427.09c-.16-.16-.33-.31-.49-.47-6.2,6.34-9.9,15.21-15.16,22.36-4.9,6.65-10.54,12.75-16.77,18.17-13.88,12.09-30.63,20.56-46.11,30.36,4.02.51,10.05-2.98,13.7-4.49,4.67-1.92,9.25-4.09,13.68-6.51,7.46-4.07,14.57-8.81,21.05-14.31,13.97-11.87,24.87-27.47,30.1-45.12ZM597.68,302.81c-4.26-7.21-10.59-11.92-18.31-15-5.18-2.07-7.35-.73-12.02,2.04-4.14,2.45-7.82,4.67-11.14,8.12,9.91,5.63,19.95,9.6,30.73,11.63-4.35-3.66-9.99-4.69-14.7-7.67,6.69,1.85,13.38,3.71,20.07,5.56-5.42-6.42-13.1-8.1-20.59-10.16,9.41-.35,17.62.79,25.95,5.47ZM613.17,316.21c.17-.08.34-.16.51-.23,1.18-15.29-6.43-25.82-18.67-34.12,8.84.5,17.67,1.01,26.51,1.51.05-.19.1-.38.14-.57-1.76-1.93-4.06-3.08-6.47-3.99-2.91-1.1-5.96-1.88-8.8-3.14-8.23-3.65-15.49-2-22.12,3.69-1.96,1.68-1.9,2.44.44,3.54,5.79,2.73,11.04,6.29,16.12,10.14,3.49,2.64,6.21,5.87,7.81,9.92,1.42,3.6,2.53,7.33,3.77,11,.25.75.5,1.5.74,2.25ZM634.15,264.72c.12-.19.23-.39.35-.58,5.21.84,12.53,3.61,17.57,2.02-2.89-6.71-12.93-8.51-19.49-8.19-4.18.21-8.61,1.06-12.55,2.51-4.7,1.73.16,2.55,2.65,3.02,2.68,4.81,9.77,5.9,13.78,9.83,4.54,4.45,6.78,11.38,9.14,17.14-.1-10.24-3.47-19.02-11.47-25.74ZM308.26,461.12c4.28,12.57,15.28,23.38,25.01,31.97,10.26,9.06,21.54,17.52,34.73,21.62.13-.19.27-.38.4-.57-5.17-5.37-12.14-9.38-18.15-13.79-5.34-3.93-10.64-7.92-15.74-12.16-4.87-4.05-9.57-8.31-13.98-12.86-4.28-4.42-7.72-10.21-12.28-14.22ZM529.48,545.91c.03-.13.06-.26.08-.39,7.44,0,13.76-2.11,18.42-8.21,2.06-2.7,3.54-5.84,4.46-9.1.6-2.12,2.42-8.48.85-10.4-3.01-3.67-5.15,5.12-5.49,6.54-.81,3.35-2.13,6.44-4.55,8.96-6.22,6.46-15.52,4.99-22.76,9.09,2.28,2.93,5.42,2.82,9,3.51ZM395.36,321.74l-.05-.52c-10.19-.52-22.85,1.72-30,9.8-6.6,7.47-6.67,19.64,2.86,24.77-2.01-7.54-2.66-15,2.82-21.29,6.1-7.01,15.94-9.76,24.37-12.76ZM391.05,555.5c-.12-2.67-.2-4.86-.33-7.04-.12-1.96-.76-4.02-.35-5.85.93-4.22-.37-7.68-2.84-10.85-5.25-6.73-8.2-14.43-9.95-22.68-.31-1.46-.39-3.44-2.51-3.15-1.87.26-1.78,2.2-1.71,3.58.18,3.93.44,7.87.91,11.78.45,3.75,2.38,6.79,5.25,9.23,1.36,1.15,2.68,2.34,4.03,3.51,3.86,3.36,5.55,7.16,3.37,12.34-1.58,3.76-.18,6.63,4.14,9.13ZM480.29,810.67c5.18-9.47,10.66-19.7,11.43-30.68.36-5.16-.49-10.32-2.48-15.1-1.39-3.34-4.66-10.44-8.65-11.45-2.11-.53-3.16,1.5-2.72,3.55.47,2.14,2.81,4.2,3.95,6.03,2.54,4.07,4.33,8.58,4.97,13.35,1.56,11.62-3.33,23.34-6.51,34.3ZM389.42,309.36c-11.08-1.12-23.7-.59-32.59,7.02-7.72,6.61-11.42,18.95-2.81,26.34.68-3.77-.13-7.65.78-11.5.93-3.91,2.79-7.55,5.59-10.46,7.5-7.81,18.99-9.21,29.03-11.39ZM684.3,480.08c.08.15.16.31.24.46,10.37-2.86,19.64-7.81,28.09-14.47,8.4-6.6,16.18-14.12,20.22-24.17-.14-.08-.28-.16-.41-.24-14.1,15.23-31.42,26.45-48.14,38.41ZM432.63,416.15c-.13-.27-.25-.54-.38-.81-8.87,1.14-17.61,3.12-26.45,4.47-4.34.66-8.68.88-13.06,1.13-2.59.14-6.11.55-5.02,4.23,1.66,5.62,18.01.87,21.93.06,7.79-1.61,16.66-4.2,22.97-9.08ZM373.25,300.17c.06-.12.12-.23.18-.35-10.06-1.47-22.16.98-29.68,8.37-6.77,6.65-10.3,17.93-1.37,24.33,0-7.82.54-15.4,6.03-21.5,6.44-7.16,15.99-8.58,24.85-10.86ZM331.71,325.45c-2.01-7.81-2.89-15.45,2.62-22.1,6.14-7.41,15.73-9.93,24.48-12.77-.06-.28-.12-.56-.19-.84-10.83,1.32-20.96,3.39-28.83,11.66-7.34,7.72-8,18.17,1.91,24.06ZM533.24,392.09l.19-.86c-6.73-2.91-14.07-4.11-20.82-6.97-6.86-2.9-12.25-9.11-19.16-11.57-2.53,7.63,7.51,12.95,13.29,15.18,8.5,3.28,17.54,3.54,26.5,4.22ZM742.74,236.19c6.77,0,13.68.58,20.43,1.17,6.78.6,12.26,3.44,18.11,6.65.16-.17.31-.34.47-.51-6.68-6.67-14.54-9.42-23.88-9.97-5.02-.3-10.01-.58-15.04-.72-4.69-.13-9.68-.76-14.3.03,8.4,2.17,15.42,6.03,19.76,13.89-.47-4.15-3.18-7.03-5.54-10.53ZM480.33,412.61c-.1.15-.2.3-.3.45,3.15,7.12,8.67,11.52,16.03,13.88,4.34,1.39,8.87,2.07,13.41,2.33,3.92.22,8.65.82,12.28-.78-.04-.22-.08-.43-.12-.65-7.6-1.56-15.27-2.55-22.57-5.3-6.75-2.54-12.22-7.19-18.72-9.94ZM670.47,279c.62-16.19-17.35-35.38-33.5-24.26,6.98,1.77,14.46,2.31,20.93,5.74,6.99,3.71,9.84,11.54,12.57,18.52ZM551.6,413.02c3.05-1.64,3.89-5.45,5.02-8.43,1.37-3.6,2.74-7.21,4.18-10.78,2.93-7.29,6.42-14.33,8.85-21.81-8.27,6.09-20.5,34.42-18.04,41.02ZM529.42,528.22c-.71-3.23-.6-10.72-5.35-8.44-3.14,1.5-5.93,4.32-7.06,7.64-1.39,4.06.94,6.79,5.03,7.43,5.24.82,6.9-1.97,7.38-6.62ZM629.61,281.07c-.28-6.04-6.78-8.84-11.36-11.43-6.1-3.45-10.75-1.31-17.09.4,2.09,3.05,10.16,4.18,13.65,5.3,2.56.82,5.11,1.65,7.61,2.64,2.04.81,5.1,3.2,7.19,3.09ZM469.52,761.74c-.3,2.86.71,5.14,2.22,7.11,5.46,7.13,7.39,15.35,7.79,24.09.11,2.3.28,4.59.44,7.19,6.73-11.78,1.69-30.16-10.45-38.4ZM318.5,321.74c-2.7-12.64,1.88-21.77,13.18-27.91-6.51-1.86-14.67,6.01-17.09,11.46-2.3,5.19-2.55,14.23,3.91,16.45ZM852.01,283.63c.07-.04.13-.08.2-.12-5.11-8.45-11.78-15.79-19.41-22.04-3.76-3.08-7.75-5.81-11.81-8.48-2.02-1.32-3.64-2.7-5.22-4.53-1.29-1.5-2.35-3.35-4.43-3.83,1.16,9.32,12.44,12.23,18.7,17.49,7.79,6.55,14.72,14.37,21.97,21.51ZM303.88,434.96c-.03-2.92-9.42-20.82-13.33-25.95-5.19,8.3,7.22,21.27,13.33,25.95ZM535.42,453.32c9.07-1.61,18.59-22.71,15.44-30.38-3.42,4.65-4.1,11.12-6.31,16.43-2.27,5.43-6.1,9.12-9.13,13.95ZM435.14,724.63c9.62-4.39,19.85-8.32,27.32-16l-.43-.54c-6.13,2.9-12.21,5.91-18.39,8.68-2.09.94-6.45,1.45-8.09,2.84-1.77,1.5-.95,2.93-.4,5.01ZM488.74,744.23c3.04,11.15,7.34,22.62,7.34,34.21,4.9-8.76-.43-30.39-7.34-34.21ZM596.66,339.87c-.14-.13-.28-.25-.42-.38-4.64,2.66-8.82,7.2-12.35,11.15-3,3.35-9,8.81-7.5,13.56,4.25-1.76,7.45-7.69,10.3-11.26,3.43-4.29,6.75-8.62,9.98-13.06ZM808.74,248.78c.09-.11.17-.21.26-.32-4.76-3.67-10.21-5.86-15.83-7.86-5.38-1.92-11.76-5.18-17.47-5.18-.08.2-.16.4-.23.6,4.31,3.42,10.86,4.72,16.03,6.58,5.75,2.06,11.5,4.12,17.25,6.18ZM315.92,295.35c-.17-.15-.35-.3-.52-.46-4.46,1.37-7.97,4.4-9.74,8.74-1.52,3.72-1.79,10.23,2,12.88,0-4.04-.22-8.14,1.3-11.97,1.46-3.67,4.51-6.2,6.96-9.19ZM477.92,800.03c.92-11.03-5.57-25.31-12.67-28.12,2.37,4.57,5.36,8.72,7.78,13.24,2.53,4.72,3.59,9.74,4.89,14.88ZM406.82,304.47c-5.82-5.37-12.62-8.97-20.37-10.71,6.79,3.57,13.58,7.14,20.37,10.71Z" stroke-width="0"/>
        <path d="M432.51,630.94c1.26-3.91,2.54-7.82,3.77-11.74,4.33-13.7,8.45-27.47,14.23-40.67,3.43-7.83,7.42-15.34,12.34-22.34.35-.49.71-.98,1.24-1.36-9.2,25.93-17.69,52.12-31.57,76.11Z" stroke-width="0"/>
        <path d="M410.17,469.53c8.32,1.78,19.97,2.55,20.38,13.57-5.73-6.31-12.77-10.18-20.49-12.96l.12-.61Z" stroke-width="0"/>
        <path d="M525.22,598.03c8.79,4.05,13.57,11.82,10.98,17.21-1.34-2.9-2.49-6.26-4.34-9.17-1.85-2.91-4.4-5.37-6.65-8.04Z" stroke-width="0"/>
        <path d="M563.65,583.11c2.58-4.07,5.15-8.14,7.73-12.21-.86,5.12-3.95,8.9-7.12,12.63-.2-.14-.41-.28-.61-.42Z" stroke-width="0"/>
        <path d="M608.24,478.73c1.86-15.74,27.03-36.24,41.91-35.9-26.54,14.66-28.14,18.41-41.91,35.9Z" stroke-width="0"/>
        <path d="M617.16,479.98c4.96-13.76,16.27-21.81,29.05-28.39-5.18,4.49-10.58,8.75-15.47,13.54-4.88,4.78-9.26,10.08-13.58,14.85Z" stroke-width="0"/>
        <path d="M396.92,402.41c3.84-.9,7.53-2.79,11.64-1.82-3.65,2.04-7.62,2.09-11.64,1.82Z" stroke-width="0"/>
      </g>
      <g>
        <g>
          <path d="M315.35,219.17l-.19-.37,2.1-21.63-39.48-76.75-13.79-6.6-.19-.37,22.97-11.82,93.12,44.67-29.11-56.58-24.04-8.18-.19-.37,29.13-14.99.19.37-2.1,21.63,45.25,87.95-2.99,1.54-.38-.75.38.75-113.24-54.86,37.47,72.83,24.04,8.18.19.37-29.13,14.99Z" stroke-width="0"/>
          <path d="M391.16,134.33c-5.12-20.8,3.63-45.01,31.36-51.83,27.53-6.77,46.51,10.62,51.63,31.42s-3.63,45.01-31.36,51.83c-27.53,6.77-46.51-10.62-51.63-31.41ZM417.72,86.71c-26.71,6.57,3.36,81.35,30.08,74.78,26.51-6.52-3.36-81.35-30.08-74.78Z" stroke-width="0"/>
          <path d="M481.87,72.58l18.74-20.51,1.05-.08.8,11.1c.35,4.82-.07,7.79,4.13,7.7l11.73-.84.21,2.93-15.29,1.1,4.32,60.11c.54,7.54.14,13.68,6.63,13.21l12.47-8.06,1.41,2-20.66,14.33c-10.89.78-19.75-2.37-20.7-15.57l-4.01-55.72c-.51-4.17-1.44-8.32-4.82-8.5l-5.24.38-.21-2.93,9.43-.68Z" stroke-width="0"/>
          <path d="M579.74,72.41l22.66-16.07,1.04.15-1.57,11.02c-.68,4.78-1.72,7.6,2.41,8.4l11.64,1.66-.42,2.91-15.18-2.16-8.51,59.67c-1.07,7.48-2.76,13.4,3.69,14.31l13.9-5.23.95,2.26-23.22,9.63c-10.81-1.54-18.8-6.5-16.93-19.6l7.89-55.3c.39-4.19.36-8.43-2.91-9.33l-5.2-.74.42-2.91,9.36,1.33Z" stroke-width="0"/>
          <path d="M634.25,59.89l30.67-5.06.6.19-13.61,43.05,22.48-6.33c19.42,6.14,25.45,17.73,18.86,38.56l-12.85,40.65,4.85,13.21-.13.4-36.64-11.58.13-.4,11.5-7.82,13.42-42.45c4.81-15.22,5.41-23.4-3-26.05l-19.84,5.62-17.15,54.26,4.85,13.21-.13.4-36.64-11.58.13-.4,11.56-8.02,24.94-78.89c1.96-6.21.66-9.04-4.15-10.56l.13-.4Z" stroke-width="0"/>
          <path d="M699.01,146.17c10.2-18.84,32.96-30.87,58.07-17.27,16.62,9,14.37,29.04,9.62,39.12l-50.04,1.56c-.97,12.37,1.92,24.68,11.15,29.68,4.62,2.5,11.17,3.18,19.81.46l1.02,3.42c-13.33,5.2-21.28,7.1-32.54,1-24.93-13.5-27.29-39.14-17.08-57.97ZM725.42,166.21c29.01-1.96,35.87-30.96,24.98-36.86-9.6-5.2-20.13,3.66-27.33,16.96-3,5.54-5.02,12.8-6.21,20.28l8.56-.38Z" stroke-width="0"/>
        </g>
        <g>
          <path d="M180.13,776.31c21.79-19.74,58.61-24.76,83.28,2.48l13.98,23.88-24.88,19.14-.56-.62,8.89-41.49c-30.48-33.02-115.26,42.92-84.67,76.69l22.01-.1,23.66-21.43,2.48-14.15.16-.14,25.8,28.48-.16.14-14.18,1.23-38.91,35.24-.42-.47-4.2-20.28-18.75-5.68c-25.38-28.01-15.78-62.78,6.48-82.93Z" stroke-width="0"/>
          <path d="M247.21,871.18c11.96-17.77,35.77-27.56,59.46-11.61,23.52,15.83,23.4,41.58,11.43,59.35-11.96,17.77-35.77,27.56-59.46,11.61-23.52-15.83-23.4-41.58-11.43-59.35ZM300.33,858.84c-22.82-15.37-57.98,57.16-35.17,72.53,22.65,15.25,57.98-57.16,35.17-72.53Z" stroke-width="0"/>
          <path d="M364.42,965.43l-27.3,8.3c-10.92-4.37-19.69-15.8-15.08-27.3,10.61-26.51,48.95-21.12,57.6-19.01l.23-.58c.7-1.75,9.68-20.78-5.33-26.79l-21.88,8.89-.38-20.51,23.51,8.51c22.23,8.9,30.14,22.47,22.33,41.97l-14.67,36.65c-2.19,5.46-3.12,7.8,0,9.05l6.2-.23.04,2.73-16.5,1.09c-13.84-5.54-11.81-15.13-10.17-19.23l1.4-3.51ZM346.64,966.91l19.11-4.79,12.88-32.17c-11.15,1.87-28.35,6.97-35.53,24.91-2.5,6.24-.74,10.33,3.54,12.05Z" stroke-width="0"/>
          <path d="M426.19,915.38l23.86-14.22,1.02.23-2.44,10.86c-1.06,4.71-2.32,7.44,1.73,8.57l11.47,2.58-.65,2.87-14.96-3.36-13.23,58.8c-1.66,7.38-3.81,13.13,2.54,14.56l14.27-4.11.77,2.33-23.91,7.75c-10.65-2.4-18.22-7.97-15.32-20.88l12.26-54.5c.72-4.14,1.02-8.38-2.16-9.53l-5.12-1.15.65-2.87,9.22,2.07Z" stroke-width="0"/>
          <path d="M481.06,891.92l17.72,2.13-24.35,23.09-2.92-.35,9.55-24.87Z" stroke-width="0"/>
          <path d="M484.89,1011.66l11.22-22.76,1.05.03,16.54,21.95c12.8.4,20.11-4.62,20.3-10.71.54-17.21-45.55-28.12-44.83-51,.49-15.53,13.29-21.85,25.89-21.46l28.53,1.32.62.44-8.79,19.05-.84-.03-19.61-17.85c-7.35-.23-14.14,2.08-14.33,7.95-.56,17.63,47.32,25.23,46.46,52.73-.56,17.63-17.74,22.97-29.5,22.6l-32.7-2.29Z" stroke-width="0"/>
          <path d="M609.39,1008.31l-.1-.41,5.73-12.85-22.46-92.01-10.95-8.57-.1-.41,71.4-17.43,12.78,28.44-.41.1-35.65-19.4-17.75,4.33,12.75,52.23,15.5-3.78,10.41-21.13.61-.15,9.36,38.35-.61.15-18.97-13.96-15.5,3.78,10.8,44.27,11.21,8.72.1.41-38.15,9.31Z" stroke-width="0"/>
          <path d="M720.18,956.66l-13.7,25.03c-10.86,4.51-25.12,2.49-29.88-8.96-10.96-26.37,20.2-49.34,27.86-53.89l-.24-.58c-.73-1.75-7.62-21.62-22.56-15.41l-9.42,21.66-14.62-14.39,22.75-10.37c22.11-9.19,37.25-5.03,45.32,14.36l15.16,36.46c2.26,5.43,3.23,7.76,6.33,6.47l4.27-4.5,1.94,1.92-11.03,12.32c-13.77,5.72-19.03-2.55-20.72-6.62l-1.45-3.49ZM708.51,970.16l10.3-16.79-13.3-32c-6.66,9.14-15.38,24.82-7.96,42.66,2.58,6.21,6.7,7.9,10.96,6.13Z" stroke-width="0"/>
          <path d="M729.41,893.61l15.06-27.19.52-.35,34.5,50.95c6.36,9.39,12.28,14.76,18.19,10.76l9.31-17.71-27.79-41.03c-3.29-4.11-6.09-4.5-9.92-1.91l-.24-.35,15.24-27.31.35-.24,39.92,58.94c3.18,4.7,4.71,6.96,7.67,4.95l3.4-5.09,1.99,1.44-8.17,14.15c-10.95,7.42-17.34,2.86-20.39-.9l-10.91,22.09c-13.39,9.07-28.09,6.09-37.15-7.3l-20.49-30.25c-3.65-5.39-6.68-6.12-10.86-3.3l-.24-.35Z" stroke-width="0"/>
          <path d="M779.92,818.94l10.77-29.16.46-.43,72.07,77.8,13.88,2.31.29.31-28.19,26.12-.29-.31-1.25-14.02-56.23-60.7c-4.42-4.78-7.53-5.04-11.23-1.62l-.29-.31Z" stroke-width="0"/>
          <path d="M826.19,801.86l-1.24-27.75.69-.79,8.41,7.29c3.65,3.16,5.46,5.56,8.37,2.53l7.7-8.89,2.22,1.92-10.04,11.59,45.55,39.47c5.71,4.95,9.77,9.57,14.03,4.65l3.13-14.52,2.41.42-4.48,24.74c-7.15,8.25-15.65,12.29-25.65,3.62l-42.22-36.58c-3.31-2.59-6.9-4.87-9.42-2.6l-3.44,3.97-2.22-1.92,6.19-7.14Z" stroke-width="0"/>
        </g>
      </g>
    </g>
  </g>
</svg>